<?xml version="1.0" encoding="UTF-8" standalone="no"?>
<!DOCTYPE svg PUBLIC "-//W3C//DTD SVG 1.1//EN"
 "http://www.w3.org/Graphics/SVG/1.1/DTD/svg11.dtd">
<!-- Generated by graphviz version 2.43.0 (0)
 -->
<!-- Title: _283978416 Pages: 1 -->
<svg width="2089pt" height="743pt"
 viewBox="0.00 0.00 2089.00 743.20" xmlns="http://www.w3.org/2000/svg" xmlns:xlink="http://www.w3.org/1999/xlink">
<g id="graph0" class="graph" transform="scale(1 1) rotate(0) translate(4 739.2)">
<title>_283978416</title>
<polygon fill="white" stroke="transparent" points="-4,4 -4,-739.2 2085,-739.2 2085,4 -4,4"/>
<g id="clust1" class="cluster">
<title>cluster283978416diagram</title>
<polygon fill="none" stroke="black" points="8,-8 8,-717 2073,-717 2073,-8 8,-8"/>
<text text-anchor="middle" x="1040.5" y="-701.8" font-family="Times,serif" font-size="14.00">283978416</text>
</g>
<g id="clust4" class="cluster">
<title>cluster283978416subsystems</title>
<polygon fill="none" stroke="white" points="16,-16 16,-686 2065,-686 2065,-16 16,-16"/>
</g>
<!-- 192690336 -->
<g id="node1" class="node">
<title>192690336</title>
<polygon fill="none" stroke="black" points="24,-79 24,-677 421,-677 421,-79 24,-79"/>
<text text-anchor="middle" x="222.5" y="-661.8" font-family="Times,serif" font-size="14.00">ManipulationStation</text>
<polyline fill="none" stroke="black" points="24,-654 421,-654 "/>
<text text-anchor="middle" x="121" y="-578.8" font-family="Times,serif" font-size="14.00">iiwa_position</text>
<polyline fill="none" stroke="black" points="24,-511 218,-511 "/>
<text text-anchor="middle" x="121" y="-435.3" font-family="Times,serif" font-size="14.00">iiwa_feedforward_torque</text>
<polyline fill="none" stroke="black" points="24,-367 218,-367 "/>
<text text-anchor="middle" x="121" y="-291.3" font-family="Times,serif" font-size="14.00">wsg_position</text>
<polyline fill="none" stroke="black" points="24,-223 218,-223 "/>
<text text-anchor="middle" x="121" y="-147.3" font-family="Times,serif" font-size="14.00">wsg_force_limit</text>
<polyline fill="none" stroke="black" points="218,-79 218,-654 "/>
<text text-anchor="middle" x="319.5" y="-638.8" font-family="Times,serif" font-size="14.00">iiwa_position_commanded</text>
<polyline fill="none" stroke="black" points="218,-631 421,-631 "/>
<text text-anchor="middle" x="319.5" y="-615.8" font-family="Times,serif" font-size="14.00">iiwa_position_measured</text>
<polyline fill="none" stroke="black" points="218,-608 421,-608 "/>
<text text-anchor="middle" x="319.5" y="-592.8" font-family="Times,serif" font-size="14.00">iiwa_velocity_estimated</text>
<polyline fill="none" stroke="black" points="218,-585 421,-585 "/>
<text text-anchor="middle" x="319.5" y="-569.8" font-family="Times,serif" font-size="14.00">iiwa_state_estimated</text>
<polyline fill="none" stroke="black" points="218,-562 421,-562 "/>
<text text-anchor="middle" x="319.5" y="-546.8" font-family="Times,serif" font-size="14.00">iiwa_torque_commanded</text>
<polyline fill="none" stroke="black" points="218,-539 421,-539 "/>
<text text-anchor="middle" x="319.5" y="-523.8" font-family="Times,serif" font-size="14.00">iiwa_torque_measured</text>
<polyline fill="none" stroke="black" points="218,-516 421,-516 "/>
<text text-anchor="middle" x="319.5" y="-500.8" font-family="Times,serif" font-size="14.00">iiwa_torque_external</text>
<polyline fill="none" stroke="black" points="218,-493 421,-493 "/>
<text text-anchor="middle" x="319.5" y="-477.8" font-family="Times,serif" font-size="14.00">wsg_state_measured</text>
<polyline fill="none" stroke="black" points="218,-470 421,-470 "/>
<text text-anchor="middle" x="319.5" y="-454.8" font-family="Times,serif" font-size="14.00">wsg_force_measured</text>
<polyline fill="none" stroke="black" points="218,-447 421,-447 "/>
<text text-anchor="middle" x="319.5" y="-431.8" font-family="Times,serif" font-size="14.00">camera3_rgb_image</text>
<polyline fill="none" stroke="black" points="218,-424 421,-424 "/>
<text text-anchor="middle" x="319.5" y="-408.8" font-family="Times,serif" font-size="14.00">camera3_depth_image</text>
<polyline fill="none" stroke="black" points="218,-401 421,-401 "/>
<text text-anchor="middle" x="319.5" y="-385.8" font-family="Times,serif" font-size="14.00">camera3_label_image</text>
<polyline fill="none" stroke="black" points="218,-378 421,-378 "/>
<text text-anchor="middle" x="319.5" y="-362.8" font-family="Times,serif" font-size="14.00">camera3_point_cloud</text>
<polyline fill="none" stroke="black" points="218,-355 421,-355 "/>
<text text-anchor="middle" x="319.5" y="-339.8" font-family="Times,serif" font-size="14.00">camera4_rgb_image</text>
<polyline fill="none" stroke="black" points="218,-332 421,-332 "/>
<text text-anchor="middle" x="319.5" y="-316.8" font-family="Times,serif" font-size="14.00">camera4_depth_image</text>
<polyline fill="none" stroke="black" points="218,-309 421,-309 "/>
<text text-anchor="middle" x="319.5" y="-293.8" font-family="Times,serif" font-size="14.00">camera4_label_image</text>
<polyline fill="none" stroke="black" points="218,-286 421,-286 "/>
<text text-anchor="middle" x="319.5" y="-270.8" font-family="Times,serif" font-size="14.00">camera4_point_cloud</text>
<polyline fill="none" stroke="black" points="218,-263 421,-263 "/>
<text text-anchor="middle" x="319.5" y="-247.8" font-family="Times,serif" font-size="14.00">camera5_rgb_image</text>
<polyline fill="none" stroke="black" points="218,-240 421,-240 "/>
<text text-anchor="middle" x="319.5" y="-224.8" font-family="Times,serif" font-size="14.00">camera5_depth_image</text>
<polyline fill="none" stroke="black" points="218,-217 421,-217 "/>
<text text-anchor="middle" x="319.5" y="-201.8" font-family="Times,serif" font-size="14.00">camera5_label_image</text>
<polyline fill="none" stroke="black" points="218,-194 421,-194 "/>
<text text-anchor="middle" x="319.5" y="-178.8" font-family="Times,serif" font-size="14.00">camera5_point_cloud</text>
<polyline fill="none" stroke="black" points="218,-171 421,-171 "/>
<text text-anchor="middle" x="319.5" y="-155.8" font-family="Times,serif" font-size="14.00">query_object</text>
<polyline fill="none" stroke="black" points="218,-148 421,-148 "/>
<text text-anchor="middle" x="319.5" y="-132.8" font-family="Times,serif" font-size="14.00">contact_results</text>
<polyline fill="none" stroke="black" points="218,-125 421,-125 "/>
<text text-anchor="middle" x="319.5" y="-109.8" font-family="Times,serif" font-size="14.00">plant_continuous_state</text>
<polyline fill="none" stroke="black" points="218,-102 421,-102 "/>
<text text-anchor="middle" x="319.5" y="-86.8" font-family="Times,serif" font-size="14.00">body_poses</text>
</g>
<!-- 173942672 -->
<g id="node2" class="node">
<title>173942672</title>
<polygon fill="none" stroke="black" points="457,-227 457,-319 909,-319 909,-227 457,-227"/>
<text text-anchor="middle" x="683" y="-303.8" font-family="Times,serif" font-size="14.00">__main__.MustardIterativeClosestPoint@000000000a5e2790</text>
<polyline fill="none" stroke="black" points="457,-296 909,-296 "/>
<text text-anchor="middle" x="571" y="-280.8" font-family="Times,serif" font-size="14.00">cloud0</text>
<polyline fill="none" stroke="black" points="457,-273 685,-273 "/>
<text text-anchor="middle" x="571" y="-257.8" font-family="Times,serif" font-size="14.00">cloud1</text>
<polyline fill="none" stroke="black" points="457,-250 685,-250 "/>
<text text-anchor="middle" x="571" y="-234.8" font-family="Times,serif" font-size="14.00">cloud2</text>
<polyline fill="none" stroke="black" points="685,-227 685,-296 "/>
<text text-anchor="middle" x="797" y="-257.8" font-family="Times,serif" font-size="14.00">X_WO</text>
</g>
<!-- 192690336&#45;&gt;173942672 -->
<g id="edge1" class="edge">
<title>192690336:y12&#45;&gt;173942672:u0</title>
<path fill="none" stroke="black" d="M421,-366C456.24,-366 425.72,-301.18 447.08,-287.51"/>
<polygon fill="black" stroke="black" points="448.17,-290.85 457,-285 446.45,-284.06 448.17,-290.85"/>
</g>
<!-- 192690336&#45;&gt;173942672 -->
<g id="edge2" class="edge">
<title>192690336:y16&#45;&gt;173942672:u1</title>
<path fill="none" stroke="black" d="M421,-274C434.02,-274 438.24,-266.38 447.13,-262.81"/>
<polygon fill="black" stroke="black" points="447.79,-266.24 457,-261 446.53,-259.36 447.79,-266.24"/>
</g>
<!-- 192690336&#45;&gt;173942672 -->
<g id="edge3" class="edge">
<title>192690336:y20&#45;&gt;173942672:u2</title>
<path fill="none" stroke="black" d="M421,-182C446.43,-182 432.89,-223.36 447.35,-234.99"/>
<polygon fill="black" stroke="black" points="446.41,-238.36 457,-238 448.5,-231.68 446.41,-238.36"/>
</g>
<!-- 265291600 -->
<g id="node3" class="node">
<title>265291600</title>
<polygon fill="none" stroke="black" points="945,-288.5 945,-357.5 1361,-357.5 1361,-288.5 945,-288.5"/>
<text text-anchor="middle" x="1153" y="-342.3" font-family="Times,serif" font-size="14.00">__main__.PickAndPlaceTrajectory2@000000000fd00750</text>
<polyline fill="none" stroke="black" points="945,-334.5 1361,-334.5 "/>
<text text-anchor="middle" x="1046" y="-319.3" font-family="Times,serif" font-size="14.00">body_poses</text>
<polyline fill="none" stroke="black" points="945,-311.5 1147,-311.5 "/>
<text text-anchor="middle" x="1046" y="-296.3" font-family="Times,serif" font-size="14.00">X_WO</text>
<polyline fill="none" stroke="black" points="1147,-288.5 1147,-334.5 "/>
<text text-anchor="middle" x="1254" y="-319.3" font-family="Times,serif" font-size="14.00">X_WG</text>
<polyline fill="none" stroke="black" points="1147,-311.5 1361,-311.5 "/>
<text text-anchor="middle" x="1254" y="-296.3" font-family="Times,serif" font-size="14.00">wsg_position</text>
</g>
<!-- 192690336&#45;&gt;265291600 -->
<g id="edge8" class="edge">
<title>192690336:y24&#45;&gt;265291600:u0</title>
<path fill="none" stroke="black" d="M421,-90C638.98,-90 747.86,7.79 909,-139 967.83,-192.59 871.11,-311.66 934.9,-322.24"/>
<polygon fill="black" stroke="black" points="934.77,-325.74 945,-323 935.29,-318.76 934.77,-325.74"/>
</g>
<!-- 217397168 -->
<g id="node4" class="node">
<title>217397168</title>
<polygon fill="none" stroke="black" points="1397,-529 1397,-621 2057,-621 2057,-529 1397,-529"/>
<text text-anchor="middle" x="1727" y="-605.8" font-family="Times,serif" font-size="14.00">drake/manipulation/planner/DifferentialInverseKinematicsIntegrator@000000000cf537b0</text>
<polyline fill="none" stroke="black" points="1397,-598 2057,-598 "/>
<text text-anchor="middle" x="1564" y="-582.8" font-family="Times,serif" font-size="14.00">X_WE_desired</text>
<polyline fill="none" stroke="black" points="1397,-575 1731,-575 "/>
<text text-anchor="middle" x="1564" y="-559.8" font-family="Times,serif" font-size="14.00">robot_state</text>
<polyline fill="none" stroke="black" points="1397,-552 1731,-552 "/>
<text text-anchor="middle" x="1564" y="-536.8" font-family="Times,serif" font-size="14.00">use_robot_state</text>
<polyline fill="none" stroke="black" points="1731,-529 1731,-598 "/>
<text text-anchor="middle" x="1894" y="-559.8" font-family="Times,serif" font-size="14.00">joint_positions</text>
</g>
<!-- 192690336&#45;&gt;217397168 -->
<g id="edge7" class="edge">
<title>192690336:y3&#45;&gt;217397168:u1</title>
<path fill="none" stroke="black" d="M421,-574C851.42,-574 961.48,-563.17 1386.89,-563"/>
<polygon fill="black" stroke="black" points="1387,-566.5 1397,-563 1387,-559.5 1387,-566.5"/>
</g>
<!-- 282920928 -->
<g id="node5" class="node">
<title>282920928</title>
<polygon fill="none" stroke="black" points="471.5,-148 471.5,-194 894.5,-194 894.5,-148 471.5,-148"/>
<text text-anchor="middle" x="683" y="-178.8" font-family="Times,serif" font-size="14.00">drake/geometry/MeshcatVisualizer@0000000010dd07e0</text>
<polyline fill="none" stroke="black" points="471.5,-171 894.5,-171 "/>
<text text-anchor="middle" x="599" y="-155.8" font-family="Times,serif" font-size="14.00">query_object</text>
<polyline fill="none" stroke="black" points="726.5,-148 726.5,-171 "/>
<text text-anchor="middle" x="810.5" y="-155.8" font-family="Times,serif" font-size="14.00"> </text>
</g>
<!-- 192690336&#45;&gt;282920928 -->
<g id="edge10" class="edge">
<title>192690336:y21&#45;&gt;282920928:u0</title>
<path fill="none" stroke="black" d="M421,-159C438.86,-159 445.74,-159 459.65,-159"/>
<polygon fill="black" stroke="black" points="460,-162.5 470,-159 460,-155.5 460,-162.5"/>
</g>
<!-- 173942672&#45;&gt;265291600 -->
<g id="edge9" class="edge">
<title>173942672:y0&#45;&gt;265291600:u1</title>
<path fill="none" stroke="black" d="M909,-261C928.35,-261 924.31,-287.24 935.25,-296.67"/>
<polygon fill="black" stroke="black" points="934.41,-300.09 945,-300 936.66,-293.46 934.41,-300.09"/>
</g>
<!-- 265291600&#45;&gt;192690336 -->
<g id="edge5" class="edge">
<title>265291600:y1&#45;&gt;192690336:u2</title>
<path fill="none" stroke="black" d="M1254,-287C1254,-149.67 1070.02,-231.16 945,-288 922.92,-298.04 931.09,-319 909,-329 725.99,-411.85 608.82,-460.56 457,-329 372,-255.34 506,-152.16 421,-78.5 412.66,-71.27 31.33,-70.71 23.5,-78.5 8.45,-93.48 0.44,-250.74 15.33,-287.39"/>
<polygon fill="black" stroke="black" points="13.09,-290.13 22.5,-295 18.18,-285.32 13.09,-290.13"/>
</g>
<!-- 265291600&#45;&gt;217397168 -->
<g id="edge6" class="edge">
<title>265291600:y0&#45;&gt;217397168:u0</title>
<path fill="none" stroke="black" d="M1361,-323C1416.28,-323 1348.11,-553.1 1387,-583.66"/>
<polygon fill="black" stroke="black" points="1386.41,-587.16 1397,-587 1388.62,-580.52 1386.41,-587.16"/>
</g>
<!-- 217397168&#45;&gt;192690336 -->
<g id="edge4" class="edge">
<title>217397168:y0&#45;&gt;192690336:u0</title>
<path fill="none" stroke="black" d="M1894,-528C1894,-307.11 1599.26,-440.2 1397,-529 1375.4,-538.48 1382.02,-557.3 1361,-568 986.13,-758.74 840.9,-653.13 421,-677.5 244.63,-687.74 149.08,-801.76 23.5,-677.5 11.02,-665.15 4.03,-607.41 14.34,-588.8"/>
<polygon fill="black" stroke="black" points="16.38,-591.65 22.5,-583 12.32,-585.94 16.38,-591.65"/>
</g>
<!-- \n -->
<g id="node6" class="node">
<title>\n</title>
<ellipse fill="none" stroke="black" cx="222.5" cy="-42" rx="27" ry="18"/>
</g>
</g>
</svg>
